<?xml version="1.0" encoding="UTF-8" standalone="no"?>
<svg
   version="1.1"
   id="svg4792"
   viewBox="0 0 350 280.00001"
   height="280"
   width="350"
   sodipodi:docname="book.svg"
   inkscape:export-filename="D:\python_projects\website-olivier-codol\docs\img\logos\book.png"
   inkscape:export-xdpi="256"
   inkscape:export-ydpi="256"
   inkscape:version="1.1 (c68e22c387, 2021-05-23)"
   xmlns:inkscape="http://www.inkscape.org/namespaces/inkscape"
   xmlns:sodipodi="http://sodipodi.sourceforge.net/DTD/sodipodi-0.dtd"
   xmlns="http://www.w3.org/2000/svg"
   xmlns:svg="http://www.w3.org/2000/svg"
   xmlns:rdf="http://www.w3.org/1999/02/22-rdf-syntax-ns#"
   xmlns:cc="http://creativecommons.org/ns#"
   xmlns:dc="http://purl.org/dc/elements/1.1/">
  <sodipodi:namedview
     id="namedview10"
     pagecolor="#ffffff"
     bordercolor="#666666"
     borderopacity="1.0"
     inkscape:pageshadow="2"
     inkscape:pageopacity="0.0"
     inkscape:pagecheckerboard="0"
     showgrid="false"
     fit-margin-top="0"
     fit-margin-left="0"
     fit-margin-right="50"
     fit-margin-bottom="0"
     inkscape:zoom="2.9"
     inkscape:cx="150.68966"
     inkscape:cy="130.68966"
     inkscape:window-width="3840"
     inkscape:window-height="2066"
     inkscape:window-x="-11"
     inkscape:window-y="49"
     inkscape:window-maximized="1"
     inkscape:current-layer="g5947" />
  <title
     id="title6620">Book Pictograph 1</title>
  <defs
     id="defs4794" />
  <metadata
     id="metadata4797">
    <rdf:RDF>
      <cc:Work
         rdf:about="">
        <dc:title>Book Pictograph 1</dc:title>
      </cc:Work>
    </rdf:RDF>
  </metadata>
  <g
     id="g5947"
     transform="translate(-222.04724,-386.1811)">
    <rect
       style="opacity:1;fill:#ffffff;fill-opacity:1;stroke:none;stroke-width:0.25;stroke-linecap:round;stroke-linejoin:miter;stroke-miterlimit:4;stroke-dasharray:none;stroke-dashoffset:0;stroke-opacity:1"
       id="rect5945"
       width="250.76656"
       height="244.33664"
       x="245.62671"
       y="396.12167" />
    <path
       id="path4311"
       style="fill:#333f4f"
       d="m 510.47795,414.18111 v -21.00002 c 0,-3.86865 -2.58463,-6.99999 -5.76922,-6.99999 H 395.09338 c -9.41542,0 -17.79621,5.50667 -23.06158,14 0,0 0,0 0,0 0,0 0,0 0,0 -5.26537,-8.49333 -13.64616,-14 -23.06148,-14 H 239.35493 c -3.18462,0 -5.76923,3.13134 -5.76923,6.99999 v 21.00002 H 222.04724 V 652.1811 h 124.22693 c 6.31152,8.58667 15.54223,14 25.77305,14 10.23081,0 19.45773,-5.41333 25.76534,-14 H 522.04724 V 414.18111 H 510.50869 Z M 245.09339,400.1811 h 103.8461 c 9.54236,0 17.30777,9.42199 17.30777,20.99999 v 133.77467 c 0,3.86867 2.58453,7.00001 5.76923,7.00001 3.18459,0 5.76922,-3.13134 5.76922,-7.00001 V 421.18109 c 0,-11.578 7.76531,-20.99999 17.30767,-20.99999 H 498.93951 V 624.18109 H 395.09338 c -9.41152,0 -17.79621,5.50668 -23.06158,14.00001 0,0 0,0 0,0 0,0 0,0 0,0 -5.26537,-8.49333 -13.64996,-14.00001 -23.06148,-14.00001 H 245.12415 V 400.1811 Z" />
  </g>
</svg>
