<?xml version="1.0" encoding="UTF-8" standalone="no"?>
<!-- Generator: Adobe Illustrator 19.0.0, SVG Export Plug-In . SVG Version: 6.00 Build 0)  -->

<svg
   version="1.1"
   id="Layer_1"
   x="0px"
   y="0px"
   viewBox="0 0 339.033 339.033"
   style="enable-background:new 0 0 339.033 339.033;"
   xml:space="preserve"
   sodipodi:docname="internet.svg"
   inkscape:version="1.1 (c68e22c387, 2021-05-23)"
   inkscape:export-filename="D:\python_projects\website-olivier-codol\docs\img\logos\internet.png"
   inkscape:export-xdpi="47.99548"
   inkscape:export-ydpi="47.99548"
   xmlns:inkscape="http://www.inkscape.org/namespaces/inkscape"
   xmlns:sodipodi="http://sodipodi.sourceforge.net/DTD/sodipodi-0.dtd"
   xmlns="http://www.w3.org/2000/svg"
   xmlns:svg="http://www.w3.org/2000/svg"><defs
   id="defs41">
	

		
	</defs><sodipodi:namedview
   id="namedview39"
   pagecolor="#ffffff"
   bordercolor="#666666"
   borderopacity="1.0"
   inkscape:pageshadow="2"
   inkscape:pageopacity="0.0"
   inkscape:pagecheckerboard="0"
   showgrid="false"
   inkscape:zoom="2.6516594"
   inkscape:cx="169.32793"
   inkscape:cy="169.32793"
   inkscape:window-width="3840"
   inkscape:window-height="2066"
   inkscape:window-x="-11"
   inkscape:window-y="49"
   inkscape:window-maximized="1"
   inkscape:current-layer="Layer_1" />
<path
   d="M 169.516,0 C 76.044,0 0,76.045 0,169.517 c 0,93.471 76.044,169.516 169.516,169.516 93.472,0 169.516,-76.044 169.516,-169.516 C 339.032,76.045 262.989,0 169.516,0 Z M 143.367,17.224 C 129.607,29.004 116.434,43.669 105.851,59.28 101.085,66.311 96.8,73.571 92.995,81.017 H 42.93 C 66.133,47.926 101.962,24.312 143.367,17.224 Z m 18.649,227.372 h -59.371 c -8.934,-19.363 -15.104,-41.7 -16.14,-66.79 h 75.511 z M 33.628,96.017 H 86.09 c -8.754,21.293 -13.708,43.833 -14.594,66.79 h -56.34 c 1.034,-24.09 7.6,-46.77 18.472,-66.79 z m -18.404,81.79 H 71.49 c 0.863,23.317 5.768,45.651 14.643,66.79 H 34.51 C 23.359,224.625 16.506,201.944 15.224,177.807 Z m 28.826,81.789 h 49.157 c 3.749,7.149 7.968,14.15 12.671,20.988 12.478,18.143 25.89,31.638 37.218,41.179 -40.627,-7.029 -75.867,-29.976 -99.046,-62.167 z m 117.966,57.991 c -16.754,-12.269 -36.477,-31.838 -51.588,-57.991 h 51.588 z m 0,-154.78 H 86.505 c 0.934,-23.32 6.239,-45.666 15.834,-66.79 h 59.678 v 66.79 z m 0,-81.79 H 109.99 c 2.556,-4.502 5.31,-8.944 8.276,-13.32 15.442,-22.78 32.369,-37.697 43.75,-46.15 z m 161.862,81.79 h -56.341 c -0.886,-22.957 -5.84,-45.497 -14.594,-66.79 h 52.461 c 10.872,20.02 17.44,42.7 18.474,66.79 z M 296.104,81.017 H 246.04 C 242.235,73.571 237.949,66.311 233.184,59.28 222.601,43.668 209.424,29.007 195.663,17.223 c 41.405,7.088 77.235,30.702 100.441,63.794 z M 177.016,21.546 c 11.381,8.453 28.308,23.37 43.75,46.15 2.966,4.376 5.72,8.818 8.276,13.32 h -52.026 z m 0,74.471 h 59.678 c 9.595,21.124 14.9,43.47 15.834,66.79 h -75.512 z m 0,81.79 v 0 h 75.512 c -1.035,25.09 -7.206,47.427 -16.14,66.79 h -59.372 z m 0,81.789 h 51.588 c -15.111,26.152 -34.834,45.722 -51.588,57.991 z m 18.924,62.167 c 11.327,-9.54 24.738,-23.038 37.215,-41.178 4.703,-6.838 8.922,-13.839 12.671,-20.988 h 49.157 c -23.178,32.189 -58.417,55.136 -99.043,62.166 z m 108.583,-77.167 h -51.622 c 8.875,-21.139 13.78,-43.472 14.643,-66.79 h 56.265 c -1.283,24.138 -8.135,46.819 -19.286,66.79 z"
   id="path2"
   style="stroke:#1ca0f1;stroke-opacity:1;fill:#1da1f2;fill-opacity:1" />
<g
   id="g8">
</g>
<g
   id="g10">
</g>
<g
   id="g12">
</g>
<g
   id="g14">
</g>
<g
   id="g16">
</g>
<g
   id="g18">
</g>
<g
   id="g20">
</g>
<g
   id="g22">
</g>
<g
   id="g24">
</g>
<g
   id="g26">
</g>
<g
   id="g28">
</g>
<g
   id="g30">
</g>
<g
   id="g32">
</g>
<g
   id="g34">
</g>
<g
   id="g36">
</g>
</svg>
