<?xml version="1.0" encoding="UTF-8" standalone="no"?>
<!-- Created with Inkscape (http://www.inkscape.org/) -->

<svg
   id="svg1291"
   viewBox="0 0 54.444984 61.999557"
   version="1.0"
   y="0"
   x="0"
   sodipodi:docname="reel.svg"
   width="54.444984"
   height="61.999557"
   inkscape:export-filename="D:\python_projects\website-olivier-codol\docs\img\logos\reel.png"
   inkscape:export-xdpi="256"
   inkscape:export-ydpi="256"
   inkscape:version="1.1 (c68e22c387, 2021-05-23)"
   xmlns:inkscape="http://www.inkscape.org/namespaces/inkscape"
   xmlns:sodipodi="http://sodipodi.sourceforge.net/DTD/sodipodi-0.dtd"
   xmlns="http://www.w3.org/2000/svg"
   xmlns:svg="http://www.w3.org/2000/svg"
   xmlns:rdf="http://www.w3.org/1999/02/22-rdf-syntax-ns#"
   xmlns:cc="http://creativecommons.org/ns#"
   xmlns:dc="http://purl.org/dc/elements/1.1/">
  <sodipodi:namedview
     id="namedview14"
     pagecolor="#ffffff"
     bordercolor="#666666"
     borderopacity="1.0"
     inkscape:pageshadow="2"
     inkscape:pageopacity="0.0"
     inkscape:pagecheckerboard="0"
     showgrid="false"
     fit-margin-top="0"
     fit-margin-left="0"
     fit-margin-right="0"
     fit-margin-bottom="0"
     inkscape:zoom="14.046875"
     inkscape:cx="25.984427"
     inkscape:cy="24.774194"
     inkscape:window-width="3840"
     inkscape:window-height="2066"
     inkscape:window-x="-11"
     inkscape:window-y="49"
     inkscape:window-maximized="1"
     inkscape:current-layer="svg1291" />
  <defs
     id="defs3">
    <linearGradient
       id="linearGradient4658"
       y2="44.993"
       gradientUnits="userSpaceOnUse"
       y1="6.7413998"
       gradientTransform="matrix(-0.31227263,-0.64971188,-1.0308314,0.49545106,63.462409,38.922633)"
       x2="47.307999"
       x1="7.8358998">
      <stop
         id="stop4595"
         style="stop-color:#4a5b7d;stop-opacity:1"
         offset="0" />
      <stop
         id="stop4597"
         style="stop-color:#000000;stop-opacity:1"
         offset="1" />
    </linearGradient>
  </defs>
  <rect
     id="rect4660"
     style="fill:#d6d7df;stroke-width:0.999996"
     transform="matrix(-0.41626213,-0.90924465,-0.8838334,0.4678018,0,0)"
     height="51.086803"
     width="27.200861"
     y="-1.8682941"
     x="4.9524913" />
  <rect
     id="rect4529"
     style="fill:#f0f2f2;fill-opacity:1;stroke-width:0.907999"
     height="50.353085"
     width="22.699974"
     y="-36.705647"
     x="-53.492554"
     transform="matrix(-0.43319432,-0.90130055,-0.90130055,0.43319432,0,0)"
     inkscape:export-filename="D:\python_projects\website-olivier-codol\docs\img\logos\reel.png"
     inkscape:export-xdpi="256"
     inkscape:export-ydpi="256" />
  <rect
     id="rect4529-6"
     style="fill:#f0f2f2;fill-opacity:1;stroke-width:0.907999"
     height="50.353085"
     width="22.699974"
     y="-36.705647"
     x="-58.032551"
     transform="matrix(-0.43319432,-0.90130055,-0.90130055,0.43319432,0,0)"
     inkscape:export-filename="D:\python_projects\website-olivier-codol\docs\img\logos\reel.png"
     inkscape:export-xdpi="256"
     inkscape:export-ydpi="256" />
  <rect
     id="rect4529-3"
     style="fill:#f0f2f2;fill-opacity:1;stroke-width:0.907999"
     height="50.353085"
     width="22.699974"
     y="-36.705647"
     x="-48.952736"
     transform="matrix(-0.43319432,-0.90130055,-0.90130055,0.43319432,0,0)"
     inkscape:export-filename="D:\python_projects\website-olivier-codol\docs\img\logos\reel.png"
     inkscape:export-xdpi="256"
     inkscape:export-ydpi="256" />
  <path
     id="rect4531"
     style="fill:url(#linearGradient4658);stroke-width:0.907999"
     d="m 58.222189,36.404093 -45.39472,21.818176 -1.757758,-3.657176 -0.05074,0.02439 -10.042364,-20.89406 0.05074,-0.02439 -1.9667,-4.0919 45.394721,-21.818173 1.9667,4.0919 9.8335,20.4595 0.208942,0.434723 1.757758,3.657177 z m -3.60346,-3.30522 -9.8335,-20.4595 -12.966412,6.232079 9.8335,20.4595 z m -10.22684,-21.27788 -0.897208,-1.866725 -2.45514,1.18002 0.897208,1.866725 z m 11.19434,24.33888 -0.897287,-1.866888 -2.45514,1.18002 0.897287,1.866888 z m -17.664452,-21.229134 -0.897209,-1.866725 -2.481328,1.192607 0.897209,1.866725 z m 11.19434,24.33888 -0.897287,-1.866888 -2.481328,1.192606 0.897287,1.866889 z M 31.451665,18.040485 30.554456,16.17376 l -2.481328,1.192607 0.897209,1.866725 z m 11.19434,24.33888 -0.897287,-1.866888 -2.481329,1.192607 0.897288,1.866888 z m -2.630448,-2.261733 -9.8335,-20.4595 -12.966413,6.232079 9.8335,20.4595 z m -15.060193,-18.954814 -0.897208,-1.866725 -2.48051,1.192214 0.897209,1.866725 z m 11.19434,24.33888 -0.897287,-1.866888 -2.48051,1.192213 0.897288,1.866889 z m -17.664452,-21.229134 -0.897209,-1.866725 -2.481328,1.192607 0.897209,1.866725 z m 11.19434,24.33888 -0.897287,-1.866888 -2.481328,1.192606 0.897287,1.866889 z m -4.267208,-1.475053 -9.8335,-20.4595 -12.965594,6.231686 9.8335,20.459499 z m -13.423432,-19.741494 -0.897209,-1.866725 -2.48051,1.192214 0.897209,1.866725 z m 11.19434,24.33888 -0.897288,-1.866889 -2.480509,1.192214 0.897287,1.866888 z M 5.518839,30.504643 4.621631,28.637918 2.141121,29.830132 3.03833,31.696857 Z m 11.19434,24.33888 -0.897287,-1.866889 -2.48051,1.192214 0.897288,1.866888 z"
     inkscape:export-filename="D:\python_projects\website-olivier-codol\docs\img\logos\reel.png"
     inkscape:export-xdpi="256"
     inkscape:export-ydpi="256" />
  <metadata
     id="metadata11">
    <rdf:RDF>
      <cc:Work>
        <dc:format>image/svg+xml</dc:format>
        <dc:type
           rdf:resource="http://purl.org/dc/dcmitype/StillImage" />
        <cc:license
           rdf:resource="http://creativecommons.org/publicdomain/zero/1.0/" />
        <dc:publisher>
          <cc:Agent
             rdf:about="http://openclipart.org/">
            <dc:title>Openclipart</dc:title>
          </cc:Agent>
        </dc:publisher>
        <dc:title>bb mov </dc:title>
        <dc:date>2010-10-12T22:35:13</dc:date>
        <dc:description>originally uploaded for OCAL 0.18 by Marko J. Kolehmainen</dc:description>
        <dc:source>https://openclipart.org/detail/90583/bb-mov--by-anonymous</dc:source>
        <dc:creator>
          <cc:Agent>
            <dc:title>Anonymous</dc:title>
          </cc:Agent>
        </dc:creator>
        <dc:subject>
          <rdf:Bag>
            <rdf:li>fix</rdf:li>
            <rdf:li>keyword</rdf:li>
            <rdf:li>librarian</rdf:li>
            <rdf:li>tag</rdf:li>
          </rdf:Bag>
        </dc:subject>
      </cc:Work>
      <cc:License
         rdf:about="http://creativecommons.org/publicdomain/zero/1.0/">
        <cc:permits
           rdf:resource="http://creativecommons.org/ns#Reproduction" />
        <cc:permits
           rdf:resource="http://creativecommons.org/ns#Distribution" />
        <cc:permits
           rdf:resource="http://creativecommons.org/ns#DerivativeWorks" />
      </cc:License>
    </rdf:RDF>
  </metadata>
</svg>
